<svg width="167" height="29" viewBox="0 0 167 29" fill="none" xmlns="http://www.w3.org/2000/svg">
<path d="M-3.81842e-07 27.75V27.5835H3.3115V0.166499H-3.81842e-07V-2.20537e-06H10.7855V0.166499H7.474V27.5835H12.6355C14.0662 27.5835 15.244 27.3862 16.169 26.9915C17.1063 26.5845 17.8402 26.011 18.3705 25.271C18.9132 24.531 19.3017 23.6677 19.536 22.681C19.7827 21.682 19.9245 20.5967 19.9615 19.425H20.128V27.75H-3.81842e-07ZM45.6554 -2.20537e-06V0.166499H42.0109V19.24C42.0109 22.2863 41.3572 24.5618 40.0499 26.0665C38.7549 27.5588 36.6336 28.305 33.6859 28.305C30.4052 28.305 28.0064 27.5958 26.4894 26.1775C24.9724 24.7468 24.2139 22.4343 24.2139 19.24V0.166499H20.9024V-2.20537e-06H32.0764V0.166499H28.3764V18.87C28.3764 20.091 28.4566 21.2503 28.6169 22.348C28.7896 23.4457 29.0979 24.42 29.5419 25.271C29.9859 26.1097 30.6149 26.7757 31.4289 27.269C32.2552 27.75 33.3159 27.9905 34.6109 27.9905C36.1896 27.9905 37.5154 27.676 38.5884 27.047C39.6737 26.418 40.4877 25.4622 41.0304 24.1795C41.5854 22.8845 41.8629 21.238 41.8629 19.24V0.166499H38.3849V-2.20537e-06H45.6554ZM60.2901 28.12L50.0041 -2.20537e-06H54.1666L62.3806 22.126L70.2061 -2.20537e-06H70.3726L60.4751 28.12H60.2901ZM50.0966 -2.20537e-06V27.5835H52.9456V27.75H47.2476V27.5835H49.9301V0.166499H47.0811V-2.20537e-06H50.0966ZM77.0326 -2.20537e-06V0.166499H74.4426V27.5835H77.0326V27.75H67.3386V27.5835H70.3171V-2.20537e-06H77.0326ZM78.4443 27.75V27.5835H82.4958V0.166499H78.4443V-2.20537e-06H91.0983V0.166499H86.6583V27.5835H91.0983V27.75H78.4443ZM118.973 -2.20537e-06V0.166499H115.717L105.579 28.305H104.913L95.1446 0.166499H92.5176V-2.20537e-06H103.969V0.166499H99.9361L107.318 22.9215L115.513 0.166499H110.796V-2.20537e-06H118.973ZM145.129 -2.20537e-06V0.166499H141.485V19.24C141.485 22.2863 140.831 24.5618 139.524 26.0665C138.229 27.5588 136.107 28.305 133.16 28.305C129.879 28.305 127.48 27.5958 125.963 26.1775C124.446 24.7468 123.688 22.4343 123.688 19.24V0.166499H120.376V-2.20537e-06H131.55V0.166499H127.85V18.87C127.85 20.091 127.93 21.2503 128.091 22.348C128.263 23.4457 128.572 24.42 129.016 25.271C129.46 26.1097 130.089 26.7757 130.903 27.269C131.729 27.75 132.79 27.9905 134.085 27.9905C135.663 27.9905 136.989 27.676 138.062 27.047C139.147 26.418 139.961 25.4622 140.504 24.1795C141.059 22.8845 141.337 21.238 141.337 19.24V0.166499H137.859V-2.20537e-06H145.129ZM146.555 27.75V27.5835H149.866V0.166499H146.555V-2.20537e-06H166.479V7.585H166.313C166.263 6.26533 165.992 5.04433 165.499 3.922C165.018 2.78733 164.296 1.88083 163.334 1.2025C162.385 0.511832 161.188 0.166499 159.745 0.166499H154.029V27.5835H159.357C161.059 27.5835 162.434 27.232 163.482 26.529C164.543 25.8137 165.326 24.8455 165.832 23.6245C166.35 22.3912 166.633 20.9913 166.683 19.425H166.849V27.75H146.555ZM160.189 17.612C160.14 16.7857 159.912 16.0642 159.505 15.4475C159.098 14.8185 158.58 14.3313 157.951 13.986C157.334 13.6407 156.674 13.468 155.971 13.468H152.604V13.32H155.971C156.674 13.32 157.34 13.1658 157.969 12.8575C158.598 12.5368 159.11 12.0805 159.505 11.4885C159.912 10.8965 160.14 10.1873 160.189 9.361H160.356V17.612H160.189Z" fill="#1F1F1F"/>
</svg>
