<svg width="849" height="118" viewBox="0 0 849 118" fill="none" xmlns="http://www.w3.org/2000/svg">
<g clip-path="url(#clip0_256_2071)">
<path d="M112.39 134.74C102.806 148.626 89.3329 156.264 74.3709 156.264C63.1511 156.264 52.6496 151.669 44.8127 143.322C37.0117 135.012 32.7112 123.921 32.7112 112.096C32.7112 100.271 37.0084 89.0386 44.8127 80.7054C52.6431 72.3362 63.138 67.7339 74.3709 67.7339C88.8235 67.7339 102.179 75.5659 111.133 89.2581L132.1 74.3048C119.799 54.3759 97.676 42.0234 74.1848 42.0234C36.0712 42.0234 5.06641 73.4564 5.06641 112.093C5.06641 150.729 36.1594 181.978 74.3709 181.978C98.2246 181.978 120.158 169.917 133.187 149.684L112.39 134.737V134.74Z" fill="white"/>
<path d="M205.08 42.0259C166.662 42.0259 135.406 73.3737 135.406 111.912C135.406 150.449 166.747 181.981 205.256 181.981C243.765 181.981 274.923 150.548 274.923 111.912C274.923 73.2754 243.595 42.0259 205.08 42.0259ZM205.256 156.08C181.595 156.08 163.051 136.679 163.051 111.912C163.051 100.067 167.365 88.9755 175.201 80.6784C183.087 72.332 193.697 67.7363 205.08 67.7363C228.355 67.7363 247.285 87.5506 247.285 111.912C247.285 136.272 228.826 156.08 205.256 156.08Z" fill="white"/>
<path d="M361.734 97.4015L289.873 42.7476V179.594H316.786V96.5793L361.734 129.188L406.682 96.5793V179.594H433.596V42.7476L361.734 97.4015Z" fill="white"/>
<path d="M444.711 44.4082V68.6545H478.348V179.594H505.261V68.6545H541.085V44.4082H444.711Z" fill="white"/>
<path d="M627.963 148.118C647.503 139.074 658.259 121.068 658.259 97.4211C658.259 67.6914 633.759 44.4082 602.483 44.4082H555.844V179.594H582.757V155.944H598.033L620.335 179.594H656.052L627.062 148.531L627.956 148.118H627.963ZM599.012 131.697H582.764V68.6545H600.661C619.192 68.6545 631.163 80.8071 631.163 99.6223C631.163 119.709 619.15 131.697 599.012 131.697Z" fill="white"/>
<path d="M699.775 111.972C699.775 134.092 717.578 152.059 739.734 152.059C759.124 152.059 775.235 138.177 778.827 119.778H761.968C758.915 129.638 750.193 136.585 739.737 136.585C726.483 136.585 716.233 125.779 716.233 111.972C716.233 101.166 722.711 91.9808 731.972 88.6789V72.7266C713.601 76.297 699.775 92.4754 699.775 111.972Z" fill="white"/>
<path d="M668.388 111.914C668.388 151.414 700.418 183.529 739.779 183.529C776.374 183.529 806.625 155.584 810.527 119.775H794.817C791.242 148.44 768.351 169.902 739.776 169.902C708.523 169.902 684.049 144.434 684.049 111.914C684.049 82.1216 704.559 58.216 731.968 54.4491V40.9272C696.271 44.7401 668.385 75.1314 668.385 111.914H668.388Z" fill="white"/>
<path d="M752.597 97.6566H769.502C766.39 81.8844 754.047 69.4861 738.266 66.335V82.3496C745.028 84.8718 750.325 90.5288 752.597 97.6566Z" fill="white"/>
<path d="M785.484 97.6574H801.223C797.618 64.58 771.332 38.2275 738.27 34.5195V48.0872C762.776 51.7625 782.163 72.1009 785.487 97.6574H785.484Z" fill="white"/>
<path d="M738.266 4.92627V18.0747C780.095 19.8861 813.921 54.4342 816.569 97.6562H832.955C830.17 47.1459 789.042 6.68201 738.266 4.92627Z" fill="white"/>
</g>
<defs>
<clipPath id="clip0_256_2071">
<rect width="849" height="118" fill="white"/>
</clipPath>
</defs>
</svg>
