<svg width="12" height="12" viewBox="0 0 12 12" fill="none" xmlns="http://www.w3.org/2000/svg">
<path d="M11.7167 0.707682C11.7167 0.316837 11.3999 -5.56685e-06 11.009 -5.70383e-06L4.63985 -5.83027e-06C4.249 -5.15592e-06 3.93216 0.316837 3.93216 0.707682C3.93216 1.09853 4.249 1.41537 4.63985 1.41537L10.3014 1.41537L10.3014 7.07687C10.3014 7.46772 10.6182 7.78456 11.009 7.78456C11.3999 7.78456 11.7167 7.46772 11.7167 7.07687L11.7167 0.707682ZM0.500412 11.2163L1.00082 11.7167L11.5094 1.20809L11.009 0.707682L10.5086 0.207271L1.19913e-06 10.7159L0.500412 11.2163Z" fill="#F4F3EE"/>
</svg>
