<svg width="17" height="17" viewBox="0 0 17 17" fill="none" xmlns="http://www.w3.org/2000/svg">
<path d="M16.5563 1C16.5563 0.447717 16.1086 2.08847e-06 15.5563 1.83559e-06L6.55635 2.63638e-06C6.00406 2.29921e-06 5.55635 0.447718 5.55635 1C5.55635 1.55229 6.00406 2 6.55635 2L14.5563 2L14.5563 10C14.5563 10.5523 15.0041 11 15.5563 11C16.1086 11 16.5563 10.5523 16.5563 10L16.5563 1ZM0.707108 15.8492L1.41421 16.5563L16.2635 1.70711L15.5563 1L14.8492 0.292896L8.34465e-07 15.1421L0.707108 15.8492Z" fill="black"/>
</svg>
