<svg width="225" height="39" viewBox="0 0 225 39" fill="none" xmlns="http://www.w3.org/2000/svg">
<path d="M-1.21444e-05 37.5V37.325H4.47499V0.174999H-1.21444e-05V-2.98023e-06H14.575V0.174999H10.1V37.325H17.075C19.0083 37.325 20.6 37.05 21.85 36.5C23.1167 35.95 24.1167 35.175 24.85 34.175C25.5833 33.175 26.1083 32 26.425 30.65C26.7583 29.3 26.95 27.8333 27 26.25H27.175V37.5H-1.21444e-05ZM61.5988 -2.98023e-06V0.174999H56.6738V26C56.6738 30.1167 55.7905 33.1917 54.0238 35.225C52.2738 37.2417 49.4072 38.25 45.4238 38.25C40.9905 38.25 37.7488 37.2917 35.6988 35.375C33.6655 33.4417 32.6488 30.3167 32.6488 26V0.174999H28.1488V-2.98023e-06H43.2488V0.174999H38.2488V25.5C38.2488 27.15 38.3571 28.7167 38.5738 30.2C38.8071 31.6833 39.2238 33 39.8238 34.15C40.4238 35.3 41.2738 36.2083 42.3738 36.875C43.4905 37.5417 44.9238 37.875 46.6738 37.875C48.8238 37.875 50.6238 37.45 52.0738 36.6C53.5405 35.7333 54.6405 34.425 55.3738 32.675C56.1238 30.925 56.4988 28.7 56.4988 26V0.174999H51.7738V-2.98023e-06H61.5988ZM81.3016 38L67.4016 -2.98023e-06H73.0266L84.1266 29.9L94.7016 -2.98023e-06H94.8766L81.5016 38H81.3016ZM67.5016 -2.98023e-06V37.325H71.3516V37.5H63.7016V37.325H67.3266V0.174999H63.4766V-2.98023e-06H67.5016ZM103.902 -2.98023e-06V0.174999H100.402V37.325H103.902V37.5H90.8016V37.325H94.8016V-2.98023e-06H103.902ZM105.762 37.5V37.325H111.237V0.174999H105.762V-2.98023e-06H122.837V0.174999H116.862V37.325H122.837V37.5H105.762ZM160.407 -2.98023e-06V0.174999H156.007L142.257 38.25H141.432L128.207 0.174999H124.657V-2.98023e-06H140.157V0.174999H134.682L144.682 30.95L155.782 0.174999H149.382V-2.98023e-06H160.407ZM195.681 -2.98023e-06V0.174999H190.756V26C190.756 30.1167 189.873 33.1917 188.106 35.225C186.356 37.2417 183.489 38.25 179.506 38.25C175.073 38.25 171.831 37.2917 169.781 35.375C167.748 33.4417 166.731 30.3167 166.731 26V0.174999H162.231V-2.98023e-06H177.331V0.174999H172.331V25.5C172.331 27.15 172.439 28.7167 172.656 30.2C172.889 31.6833 173.306 33 173.906 34.15C174.506 35.3 175.356 36.2083 176.456 36.875C177.573 37.5417 179.006 37.875 180.756 37.875C182.906 37.875 184.706 37.45 186.156 36.6C187.623 35.7333 188.723 34.425 189.456 32.675C190.206 30.925 190.581 28.7 190.581 26V0.174999H185.856V-2.98023e-06H195.681ZM197.559 37.5V37.325H202.034V0.174999H197.559V-2.98023e-06H224.459V10.25H224.284C224.217 8.46667 223.85 6.80833 223.184 5.275C222.517 3.74167 221.534 2.50833 220.234 1.575C218.95 0.641666 217.334 0.174999 215.384 0.174999H207.659V37.325H214.859C217.159 37.325 219.017 36.8417 220.434 35.875C221.867 34.9083 222.934 33.5917 223.634 31.925C224.334 30.2583 224.717 28.3667 224.784 26.25H224.959V37.5H197.559ZM216.009 23.8C215.942 22.6833 215.634 21.7083 215.084 20.875C214.534 20.025 213.834 19.3667 212.984 18.9C212.134 18.4333 211.234 18.2 210.284 18.2H205.684V18.025H210.284C211.234 18.025 212.134 17.8083 212.984 17.375C213.834 16.9417 214.534 16.325 215.084 15.525C215.634 14.725 215.942 13.7667 216.009 12.65H216.184V23.8H216.009Z" fill="white"/>
</svg>
