<svg width="29" height="29" viewBox="0 0 29 29" fill="none" xmlns="http://www.w3.org/2000/svg">
<g clip-path="url(#clip0_520_641)">
<path d="M14.3788 15.2772C16.3641 15.2772 17.9735 13.6678 17.9735 11.6826C17.9735 9.69728 16.3641 8.08789 14.3788 8.08789C12.3936 8.08789 10.7842 9.69728 10.7842 11.6826C10.7842 13.6678 12.3936 15.2772 14.3788 15.2772Z" stroke="white" stroke-width="1.348" stroke-linecap="round" stroke-linejoin="round"/>
<path d="M23.3654 11.6825C23.3654 19.7705 14.3788 26.0611 14.3788 26.0611C14.3788 26.0611 5.39209 19.7705 5.39209 11.6825C5.39209 9.29906 6.3389 7.01326 8.02422 5.32793C9.70955 3.64261 11.9953 2.6958 14.3788 2.6958C16.7622 2.6958 19.048 3.64261 20.7333 5.32793C22.4186 7.01326 23.3654 9.29906 23.3654 11.6825Z" stroke="white" stroke-width="1.348" stroke-linecap="round" stroke-linejoin="round"/>
</g>
<defs>
<clipPath id="clip0_520_641">
<rect width="28.7573" height="28.7573" fill="white"/>
</clipPath>
</defs>
</svg>
