<svg width="29" height="29" viewBox="0 0 29 29" fill="none" xmlns="http://www.w3.org/2000/svg">
<g clip-path="url(#clip0_520_638)">
<path d="M18.4663 16.3264C18.5908 16.2436 18.7339 16.1931 18.8828 16.1796C19.0317 16.166 19.1816 16.1898 19.3189 16.2489L24.6166 18.6225C24.7951 18.6988 24.9441 18.8308 25.0413 18.9989C25.1385 19.167 25.1787 19.362 25.1558 19.5548C24.9812 20.8591 24.339 22.0555 23.3484 22.9217C22.3578 23.7879 21.0864 24.2648 19.7705 24.2638C15.7187 24.2638 11.8328 22.6543 8.96779 19.7892C6.10274 16.9242 4.49317 13.0383 4.49317 8.98651C4.49216 7.67064 4.9691 6.39919 5.83528 5.40861C6.70146 4.41804 7.89794 3.77577 9.20218 3.60125C9.39498 3.57834 9.59001 3.61849 9.75809 3.71569C9.92616 3.81289 10.0582 3.96191 10.1345 4.14045L12.5081 9.44258C12.5665 9.57876 12.5902 9.72725 12.5773 9.87482C12.5643 10.0224 12.5151 10.1645 12.434 10.2884L10.0334 13.1428C9.94829 13.2713 9.89794 13.4197 9.88731 13.5735C9.87667 13.7273 9.90613 13.8812 9.97279 14.0202C10.9018 15.922 12.8676 17.8642 14.775 18.7842C14.9148 18.8506 15.0694 18.8794 15.2236 18.8678C15.3779 18.8561 15.5264 18.8045 15.6546 18.7179L18.4663 16.3264Z" stroke="white" stroke-width="1.348" stroke-linecap="round" stroke-linejoin="round"/>
</g>
<defs>
<clipPath id="clip0_520_638">
<rect width="28.7573" height="28.7573" fill="white"/>
</clipPath>
</defs>
</svg>
