<svg width="32" height="32" viewBox="0 0 32 32" fill="none" xmlns="http://www.w3.org/2000/svg">
<g clip-path="url(#clip0_16_11)">
<path d="M16 28L27.17 16.67C28.3422 15.4977 29.0008 13.9078 29.0008 12.25C29.0008 10.5921 28.3422 9.00223 27.17 7.82997C25.9977 6.65771 24.4078 5.99915 22.75 5.99915C21.0921 5.99915 19.5022 6.65771 18.33 7.82997L16 9.99997L13.67 7.82997C12.4977 6.65771 10.9078 5.99915 9.24997 5.99915C7.59215 5.99915 6.00223 6.65771 4.82997 7.82997C3.65771 9.00223 2.99915 10.5921 2.99915 12.25C2.99915 13.9078 3.65771 15.4977 4.82997 16.67L16 28Z" stroke="#1F1F1F" stroke-width="2" stroke-linecap="round" stroke-linejoin="round"/>
</g>
<defs>
<clipPath id="clip0_16_11">
<rect width="32" height="32" fill="white"/>
</clipPath>
</defs>
</svg>
