<svg width="44" height="45" viewBox="0 0 44 45" fill="none" xmlns="http://www.w3.org/2000/svg">
<g clip-path="url(#clip0_228_2551)">
<path d="M36.1374 36.4646C39.0995 33.5025 35.1709 24.7714 27.3627 16.9632C19.5545 9.15499 10.8234 5.2264 7.86134 8.18846C4.89928 11.1505 8.82787 19.8816 16.6361 27.6898C24.4443 35.498 33.1754 39.4266 36.1374 36.4646Z" stroke="white" stroke-width="2.75" stroke-linecap="round" stroke-linejoin="round"/>
<path d="M27.3627 27.6911C35.1709 19.8829 39.0995 11.1518 36.1374 8.18974C33.1754 5.22767 24.4443 9.15626 16.6361 16.9645C8.82787 24.7727 4.89928 33.5038 7.86134 36.4658C10.8234 39.4279 19.5545 35.4993 27.3627 27.6911Z" stroke="white" stroke-width="2.75" stroke-linecap="round" stroke-linejoin="round"/>
<path d="M22 24.3896C23.1391 24.3896 24.0625 23.4662 24.0625 22.3271C24.0625 21.1881 23.1391 20.2646 22 20.2646C20.8609 20.2646 19.9375 21.1881 19.9375 22.3271C19.9375 23.4662 20.8609 24.3896 22 24.3896Z" fill="white"/>
</g>
<defs>
<clipPath id="clip0_228_2551">
<rect width="44" height="44" fill="white" transform="translate(0 0.327148)"/>
</clipPath>
</defs>
</svg>
