<svg width="173" height="40" viewBox="0 0 173 40" fill="none" xmlns="http://www.w3.org/2000/svg">
<path d="M22.8353 27.3585C20.888 30.1778 18.1506 31.7289 15.1106 31.7289C12.8309 31.7289 10.6973 30.7957 9.10495 29.101C7.51994 27.4137 6.64616 25.1616 6.64616 22.7606C6.64616 20.3596 7.51928 18.0789 9.10495 16.3869C10.6959 14.6876 12.8283 13.7531 15.1106 13.7531C18.0471 13.7531 20.7606 15.3434 22.5799 18.1235L26.8399 15.0873C24.3407 11.0408 19.8457 8.53271 15.0728 8.53271C7.32886 8.53271 1.0293 14.915 1.0293 22.7599C1.0293 30.6048 7.34678 36.9499 15.1106 36.9499C19.9572 36.9499 24.4137 34.501 27.0609 30.3927L22.8353 27.3578V27.3585Z" fill="white"/>
<path d="M41.668 8.5332C33.8624 8.5332 27.5117 14.8982 27.5117 22.7232C27.5117 30.5481 33.8796 36.9504 41.7038 36.9504C49.528 36.9504 55.8588 30.5681 55.8588 22.7232C55.8588 14.8783 49.4935 8.5332 41.668 8.5332ZM41.7038 31.6914C36.8964 31.6914 33.1286 27.752 33.1286 22.7232C33.1286 20.3182 34.005 18.0661 35.5973 16.3814C37.1996 14.6867 39.3552 13.7536 41.668 13.7536C46.3971 13.7536 50.2432 17.7768 50.2432 22.7232C50.2432 27.6696 46.4927 31.6914 41.7038 31.6914Z" fill="white"/>
<path d="M73.4973 19.7769L58.8965 8.67969V36.4657H64.3647V19.61L73.4973 26.2311L82.6298 19.61V36.4657H88.0981V8.67969L73.4973 19.7769Z" fill="white"/>
<path d="M90.3555 9.0166V13.9397H97.1898V36.4654H102.658V13.9397H109.937V9.0166H90.3555Z" fill="white"/>
<path d="M127.591 30.0744C131.561 28.2381 133.746 24.582 133.746 19.7806C133.746 13.7442 128.768 9.0166 122.414 9.0166H112.938V36.4654H118.406V31.6634H121.509L126.041 36.4654H133.298L127.408 30.1583L127.589 30.0744H127.591ZM121.708 26.7403H118.407V13.9397H122.044C125.809 13.9397 128.241 16.4072 128.241 20.2276C128.241 24.306 125.8 26.7403 121.708 26.7403Z" fill="white"/>
<path d="M142.18 22.7352C142.18 27.2267 145.797 30.8748 150.298 30.8748C154.238 30.8748 157.512 28.056 158.241 24.3202H154.816C154.196 26.3221 152.424 27.7328 150.299 27.7328C147.606 27.7328 145.524 25.5386 145.524 22.7352C145.524 20.541 146.84 18.6761 148.721 18.0057V14.7666C144.989 15.4916 142.18 18.7765 142.18 22.7352Z" fill="white"/>
<path d="M135.801 22.723C135.801 30.7435 142.309 37.2642 150.307 37.2642C157.742 37.2642 163.888 31.5902 164.681 24.3193H161.489C160.763 30.1396 156.112 34.4974 150.306 34.4974C143.956 34.4974 138.983 29.3262 138.983 22.723C138.983 16.6739 143.151 11.82 148.72 11.0551V8.30957C141.467 9.08375 135.801 15.2546 135.801 22.723H135.801Z" fill="white"/>
<path d="M154.803 21.138H158.237C157.605 17.9356 155.097 15.4182 151.891 14.7783V18.03C153.265 18.5421 154.341 19.6908 154.803 21.138Z" fill="url(#paint0_linear_10_6067)"/>
<path d="M161.484 21.1382H164.681C163.949 14.422 158.608 9.07126 151.891 8.31836V11.0732C156.87 11.8195 160.809 15.9491 161.484 21.1382H161.484Z" fill="url(#paint1_linear_10_6067)"/>
<path d="M151.891 2.30957V4.9793C160.39 5.3471 167.262 12.3619 167.8 21.138H171.13C170.564 10.8821 162.207 2.66607 151.891 2.30957Z" fill="url(#paint2_linear_10_6067)"/>
<defs>
<linearGradient id="paint0_linear_10_6067" x1="155.064" y1="14.7783" x2="155.064" y2="21.138" gradientUnits="userSpaceOnUse">
<stop stop-color="#63038F"/>
<stop offset="1" stop-color="#AE00FF"/>
</linearGradient>
<linearGradient id="paint1_linear_10_6067" x1="158.286" y1="8.31836" x2="158.286" y2="21.1382" gradientUnits="userSpaceOnUse">
<stop stop-color="#63038F"/>
<stop offset="1" stop-color="#AE00FF"/>
</linearGradient>
<linearGradient id="paint2_linear_10_6067" x1="161.51" y1="2.30957" x2="161.51" y2="21.138" gradientUnits="userSpaceOnUse">
<stop stop-color="#63038F"/>
<stop offset="1" stop-color="#AE00FF"/>
</linearGradient>
</defs>
</svg>
