<svg width="44" height="45" viewBox="0 0 44 45" fill="none" xmlns="http://www.w3.org/2000/svg">
<g clip-path="url(#clip0_231_2611)">
<path d="M22 15.4521C23.5188 15.4521 24.75 14.2209 24.75 12.7021C24.75 11.1834 23.5188 9.95215 22 9.95215C20.4812 9.95215 19.25 11.1834 19.25 12.7021C19.25 14.2209 20.4812 15.4521 22 15.4521Z" stroke="white" stroke-width="2.75" stroke-linecap="round" stroke-linejoin="round"/>
<path d="M24.75 26.4521C26.2688 26.4521 27.5 25.2209 27.5 23.7021C27.5 22.1834 26.2688 20.9521 24.75 20.9521C23.2312 20.9521 22 22.1834 22 23.7021C22 25.2209 23.2312 26.4521 24.75 26.4521Z" stroke="white" stroke-width="2.75" stroke-linecap="round" stroke-linejoin="round"/>
<path d="M20.6242 37.4522H12.3742C12.0095 37.4522 11.6598 37.3073 11.4019 37.0494C11.1441 36.7916 10.9992 36.4418 10.9992 36.0772V29.857L6.2589 27.6862C5.94568 27.5292 5.7042 27.2586 5.58378 26.9296C5.46335 26.6006 5.47306 26.238 5.61093 25.9159L9.62421 18.2022C9.62421 15.8584 10.2233 13.5535 11.3647 11.5064C12.506 9.45928 14.1517 7.7379 16.1454 6.5057C18.1391 5.2735 20.4148 4.5714 22.7562 4.46605C25.0976 4.3607 27.4271 4.85561 29.5234 5.90378C31.6197 6.95195 33.4133 8.51858 34.7339 10.4549C36.0545 12.3913 36.8582 14.633 37.0687 16.9673C37.2791 19.3016 36.8894 21.651 35.9365 23.7923C34.9837 25.9337 33.4992 27.7959 31.6242 29.2022L32.9992 40.2022" stroke="white" stroke-width="2.75" stroke-linecap="round" stroke-linejoin="round"/>
<path d="M22 9.9525V4.51953" stroke="white" stroke-width="2.75" stroke-linecap="round" stroke-linejoin="round"/>
<path d="M36.8463 15.4521H31.6248L26.5098 21.5898" stroke="white" stroke-width="2.75" stroke-linecap="round" stroke-linejoin="round"/>
</g>
<defs>
<clipPath id="clip0_231_2611">
<rect width="44" height="44" fill="white" transform="translate(0 0.327148)"/>
</clipPath>
</defs>
</svg>
